<svg version="1.1" id="Layer_1" xmlns="http://www.w3.org/2000/svg" xmlns:xlink="http://www.w3.org/1999/xlink" x="0px" y="0px"
	 width="100%" viewBox="0 0 500 500" enable-background="new 0 0 500 500" xml:space="preserve">
<path fill="#000000" opacity="1.000000" stroke="none" 
	d="
M264.000000,501.000000 
	C176.000015,501.000000 88.500038,501.000000 1.000047,501.000000 
	C1.000031,334.333405 1.000031,167.666794 1.000016,1.000136 
	C167.666565,1.000091 334.333130,1.000091 500.999756,1.000046 
	C500.999847,167.666519 500.999847,334.333038 500.999939,500.999786 
	C422.166656,501.000000 343.333344,501.000000 264.000000,501.000000 
M329.025330,269.883331 
	C327.978394,269.436523 326.931458,268.989716 325.567047,268.407410 
	C322.270111,275.848022 319.062073,283.087952 315.759888,290.540375 
	C325.053894,296.438721 335.325256,298.423645 345.739319,299.482697 
	C359.666443,300.899048 373.421021,300.408447 385.643524,292.225067 
	C395.295502,285.762756 399.257416,276.510712 397.912842,265.135956 
	C396.645325,254.413101 389.378784,248.678238 379.984650,245.095810 
	C377.356232,244.093491 374.586761,243.431351 371.846344,242.758423 
	C365.231873,241.134201 358.535400,239.802628 352.011597,237.879456 
	C350.348206,237.389114 347.937531,234.936920 348.123230,233.733887 
	C348.395935,231.967056 350.518280,229.398712 352.164459,229.137527 
	C356.847687,228.394516 361.814545,227.904831 366.437073,228.688263 
	C372.715637,229.752365 378.778381,232.089996 385.294403,233.986389 
	C388.212158,226.971634 391.185425,219.823441 394.406097,212.080475 
	C374.031036,203.479477 353.823486,200.656082 333.363068,210.041718 
	C322.984406,214.802628 317.452545,223.482697 317.151031,235.014252 
	C316.844055,246.756058 323.511383,255.764511 335.881287,259.709503 
	C344.254486,262.379883 352.996521,263.885834 361.396729,266.484283 
	C363.793976,267.225861 365.573059,269.965698 367.635590,271.789246 
	C365.301910,273.262878 363.089447,275.737427 360.613647,276.037262 
	C349.774200,277.349945 339.487915,274.827637 329.025330,269.883331 
M104.082176,284.415436 
	C125.516167,307.751465 169.465195,303.503723 183.493835,281.466766 
	C177.240936,275.875732 170.946533,270.247589 164.685501,264.649292 
	C149.965683,276.828278 137.754517,278.198334 128.863998,268.835022 
	C121.021111,260.575043 120.940323,244.143036 128.701355,235.756516 
	C137.360550,226.399506 149.387161,227.700165 164.750061,239.726334 
	C171.054779,234.095627 177.376724,228.449554 183.741913,222.764832 
	C183.178665,221.998230 182.833832,221.444183 182.407959,220.961639 
	C169.905640,206.795944 153.710022,202.970398 135.782089,204.901611 
	C117.204247,206.902817 102.702225,215.772995 95.597679,233.441498 
	C88.358376,251.445129 90.767395,268.686646 104.082176,284.415436 
M282.499969,244.686142 
	C288.998993,244.685196 295.498840,244.748520 301.996735,244.661758 
	C306.691101,244.599075 307.884613,242.806946 306.454224,238.328995 
	C304.919281,233.523605 301.080414,230.720444 295.410583,230.645096 
	C286.245605,230.523270 277.078247,230.580475 267.911896,230.558990 
	C266.078796,230.554703 264.202728,230.767639 262.428680,230.438049 
	C261.365173,230.240494 260.460999,229.185165 259.485229,228.515350 
	C260.529236,227.922470 261.512421,227.109177 262.634583,226.799698 
	C263.721039,226.500061 264.950378,226.712830 266.116974,226.710663 
	C274.950073,226.694305 283.783539,226.723877 292.616119,226.647873 
	C297.209320,226.608353 298.233582,225.165802 297.041779,220.798080 
	C295.684082,215.822433 291.456818,212.872437 285.156250,212.769150 
	C277.658112,212.646225 270.154572,212.778793 262.660461,212.559219 
	C261.588593,212.527802 260.556427,211.140915 259.505859,210.381332 
	C260.571167,209.822418 261.612030,208.845078 262.706329,208.781036 
	C266.361053,208.567261 270.051636,208.887772 273.695312,208.592941 
	C275.985352,208.407654 278.215912,207.487366 280.473175,206.896820 
	C279.770386,204.241821 279.734283,201.063339 278.176636,199.079590 
	C276.629944,197.109833 273.660461,195.575668 271.121979,195.217270 
	C266.708740,194.594208 262.141052,194.892715 257.651459,195.097595 
	C256.459198,195.151993 255.315598,196.272995 254.149628,196.904251 
	C255.297379,197.798019 256.379333,199.340622 257.605103,199.464935 
	C261.403870,199.850174 265.275818,199.493973 269.081451,199.840988 
	C270.844025,200.001694 272.518921,201.124588 274.233582,201.811264 
	C274.070221,202.405045 273.906891,202.998825 273.743530,203.592606 
	C269.955109,203.592606 266.165070,203.523041 262.378601,203.609116 
	C256.874969,203.734207 253.959518,206.256760 253.999054,210.702316 
	C254.039429,215.241501 256.891266,217.746964 262.353912,217.803680 
	C269.852997,217.881577 277.357605,217.695221 284.850372,217.927628 
	C286.911102,217.991547 288.938049,219.144470 290.980530,219.797684 
	C290.840576,220.314423 290.700623,220.831161 290.560669,221.347916 
	C288.933167,221.422211 287.305908,221.554535 285.678162,221.560760 
	C278.678467,221.587540 271.678619,221.577606 264.678833,221.580170 
	C263.512238,221.580597 262.339691,221.499191 261.180145,221.588654 
	C256.935944,221.916092 254.337234,224.124023 254.040375,228.454666 
	C253.759644,232.549896 256.596924,235.455017 261.305603,235.531525 
	C272.135895,235.707535 282.970642,235.594772 293.803070,235.668930 
	C296.454285,235.687073 299.396851,235.403656 300.808105,239.501114 
	C298.495331,239.501114 296.697571,239.498810 294.899811,239.501495 
	C283.733521,239.518143 272.565948,239.442291 261.401611,239.598663 
	C256.832214,239.662659 253.822784,242.693359 254.029434,246.681107 
	C254.255676,251.046692 256.840637,253.262100 261.082031,253.623688 
	C262.572723,253.750778 264.079712,253.705811 265.579254,253.706604 
	C277.078979,253.712738 288.578674,253.710373 300.078400,253.711899 
	C301.245026,253.712067 302.469269,253.498550 303.563232,253.782745 
	C304.849152,254.116806 306.021942,254.886169 307.243805,255.466736 
	C305.944122,256.154877 304.709686,257.081207 303.325378,257.460327 
	C302.084259,257.800262 300.678223,257.541107 299.344940,257.541016 
	C287.178589,257.540436 275.012085,257.507599 262.845917,257.550873 
	C257.138214,257.571167 254.066422,260.132233 253.992889,264.727142 
	C253.919525,269.311615 256.958771,271.895081 262.794891,271.932953 
	C273.460876,272.002167 284.127594,271.942902 294.793945,271.970367 
	C296.504059,271.974792 298.213715,272.151031 299.923584,272.247833 
	C300.002716,272.819580 300.081848,273.391357 300.160980,273.963104 
	C297.811310,274.488159 295.468201,275.429230 293.110840,275.466339 
	C282.780426,275.628998 272.445648,275.483246 262.113007,275.545868 
	C257.123535,275.576080 254.149643,278.208221 254.006958,282.435730 
	C253.862701,286.709503 256.676208,289.532196 261.757935,289.640228 
	C269.920868,289.813843 278.089844,289.692566 286.256012,289.740356 
	C287.780609,289.749268 289.303986,289.966553 290.827942,290.087677 
	C290.906677,290.629730 290.985382,291.171814 291.064117,291.713898 
	C288.868805,292.320129 286.687744,293.380432 284.475586,293.449890 
	C276.982605,293.685272 269.477631,293.501404 261.979218,293.612549 
	C256.978882,293.686676 254.015152,296.383759 253.970795,300.595032 
	C253.927322,304.720825 257.086578,307.857574 261.721100,307.980713 
	C266.717438,308.113525 271.732605,308.205078 276.711456,307.881744 
	C278.047424,307.794983 279.281006,306.131287 280.561584,305.191467 
	C279.345093,304.354980 278.171967,302.883087 276.904297,302.796600 
	C272.424561,302.490906 267.903259,302.815857 263.418213,302.552917 
	C262.071075,302.473938 260.790588,301.257965 259.479553,300.562897 
	C260.847351,299.960449 262.202057,298.873840 263.585144,298.836395 
	C270.913574,298.638031 278.250793,298.790710 285.581696,298.649933 
	C291.538208,298.535522 296.118500,295.114777 297.177063,290.235474 
	C297.949615,286.674438 297.242676,284.486450 292.827087,284.565002 
	C283.164062,284.736938 273.493530,284.675720 263.830902,284.476349 
	C262.373383,284.446259 260.941803,283.160767 259.498230,282.455994 
	C260.897034,281.887207 262.287994,280.848328 263.695892,280.824829 
	C274.026550,280.652313 284.374390,280.971313 294.685364,280.478333 
	C297.877258,280.325714 301.586945,278.808685 303.914124,276.669952 
	C305.736298,274.995331 305.790588,271.396973 306.630371,268.653351 
	C304.377563,268.037415 302.132050,266.921844 299.870697,266.888672 
	C287.540283,266.707672 275.205292,266.847321 262.874084,266.697601 
	C261.724091,266.683655 260.589325,265.418060 259.447479,264.733582 
	C260.583984,264.069794 261.683441,262.923706 262.863953,262.833008 
	C266.344269,262.565765 269.856659,262.708557 273.356506,262.705139 
	C283.856232,262.694824 294.368042,262.960419 304.846802,262.488739 
	C307.347656,262.376129 310.610199,260.337677 311.896667,258.204529 
	C312.882477,256.569977 312.046814,252.796829 310.657410,251.076126 
	C309.387268,249.503159 306.296783,248.799759 303.991302,248.761963 
	C290.495087,248.540695 276.993103,248.683578 263.495239,248.523224 
	C262.149506,248.507233 260.818207,247.278305 259.480194,246.612305 
	C260.820312,245.976807 262.143066,244.839493 263.503540,244.792435 
	C269.496460,244.585144 275.500214,244.692291 282.499969,244.686142 
M288.517700,346.874573 
	C286.289124,339.398926 286.289124,339.398926 275.592712,340.573883 
	C278.918762,351.042389 282.210815,361.403839 285.525848,371.837616 
	C289.463287,371.837616 293.096954,371.837616 297.027924,371.837616 
	C298.733765,366.752472 300.466522,361.587097 302.515137,355.480072 
	C304.419189,361.617126 305.983124,366.657898 307.560333,371.741516 
	C311.519531,371.741516 315.258514,371.741516 319.183990,371.741516 
	C322.520966,361.226410 325.796448,350.905121 329.169312,340.276886 
	C325.460754,340.276886 322.480469,340.276886 319.158600,340.276886 
	C317.318115,345.798981 315.464508,351.360321 313.219177,358.097076 
	C311.096375,351.380829 309.328186,345.786530 307.550934,340.163544 
	C305.924988,340.163544 304.732666,340.345581 303.616272,340.131500 
	C299.167816,339.278412 296.961548,341.123260 296.009796,345.489502 
	C295.192505,349.238983 293.705994,352.842560 292.515411,356.510681 
	C292.169281,356.493835 291.823181,356.476990 291.477081,356.460144 
	C290.588470,353.517120 289.699890,350.574097 288.517700,346.874573 
M166.451569,372.008087 
	C169.910873,371.672729 173.486206,371.780579 176.805786,370.911499 
	C184.143677,368.990448 188.143051,363.291412 188.027557,355.805908 
	C187.916992,348.639282 183.811966,342.610260 176.666000,341.357758 
	C169.600525,340.119415 162.293198,340.260986 154.830170,339.780365 
	C154.830170,351.097595 154.830170,361.349091 154.830170,372.008118 
	C158.550903,372.008118 162.016403,372.008118 166.451569,372.008087 
M411.627625,348.640015 
	C411.627625,356.372498 411.627625,364.104980 411.627625,371.641876 
	C415.629608,371.641876 418.864136,371.641876 422.525208,371.641876 
	C422.525208,367.685913 422.525208,364.097412 422.525208,360.519287 
	C425.889526,360.519287 428.809875,360.519287 432.135101,360.519287 
	C432.135101,364.394928 432.135101,367.992554 432.135101,371.681946 
	C435.933014,371.681946 439.308899,371.681946 442.652954,371.681946 
	C442.652954,361.103394 442.652954,350.853851 442.652954,340.578003 
	C438.994965,340.578003 435.632324,340.578003 431.871582,340.578003 
	C431.871582,344.426910 431.871582,347.865356 431.871582,351.174896 
	C428.522186,351.174896 425.591034,351.174896 422.171356,351.174896 
	C422.171356,347.452545 422.171356,344.033600 422.171356,340.466370 
	C418.452728,340.466370 415.238098,340.466370 411.627991,340.466370 
	C411.627991,343.067047 411.627991,345.375427 411.627625,348.640015 
M131.639923,339.663361 
	C121.046265,340.722778 114.901588,346.312805 114.344818,355.397308 
	C113.843468,363.577545 119.611374,370.572876 128.210983,372.214203 
	C137.829193,374.049957 146.311218,369.689270 149.174744,361.395477 
	C152.626190,351.398895 145.922333,339.696259 131.639923,339.663361 
M191.794189,341.256592 
	C191.794189,351.373383 191.794189,361.490204 191.794189,372.008545 
	C196.386978,372.008545 200.687027,372.008514 204.987061,372.008514 
	C209.248093,372.008514 213.509125,372.008545 217.599182,372.008545 
	C217.599182,368.913971 217.599182,366.524658 217.599182,363.755859 
	C212.260193,363.755859 207.320312,363.755859 202.380417,363.755859 
	C202.244080,363.188873 202.107742,362.621918 201.971405,362.054932 
	C205.022919,357.103485 211.138641,361.649200 215.309036,359.100861 
	C215.309036,357.038940 215.309036,354.794312 215.309036,352.027588 
	C210.832138,352.027588 206.581924,352.027588 202.127701,352.027588 
	C202.230545,350.694244 202.212280,349.214447 202.365280,349.196503 
	C207.197083,348.630402 212.045517,348.206360 217.012817,347.749542 
	C217.012817,345.277832 217.012817,342.867981 217.012817,340.500519 
	C208.529175,340.500519 200.399170,340.500519 191.794189,341.256592 
M261.358765,339.660278 
	C258.904205,339.979248 256.372437,340.019958 254.011337,340.675598 
	C249.226868,342.004059 246.162506,345.177551 246.146027,350.313171 
	C246.129608,355.429565 249.486771,357.968872 254.089645,359.168243 
	C255.693130,359.586060 257.333282,359.887329 258.902374,360.406189 
	C260.465820,360.923126 261.961121,361.646179 264.788757,362.819183 
	C258.369019,365.788025 253.863770,363.407501 248.986893,361.845184 
	C247.853928,364.372253 246.795166,366.733765 245.566147,369.475067 
	C253.249451,373.055115 260.725861,374.143982 268.346008,370.774139 
	C272.312897,369.019867 274.375031,365.717224 274.052704,361.176392 
	C273.747375,356.874634 270.946716,354.737579 267.279938,353.503876 
	C265.090698,352.767273 262.743073,352.510376 260.531738,351.827209 
	C259.179565,351.409454 257.950684,350.592438 256.666412,349.954742 
	C256.840332,349.259064 257.014252,348.563416 257.188141,347.867767 
	C261.359833,348.324188 265.531525,348.780579 269.968140,349.265991 
	C270.775543,347.205078 271.705017,344.832550 272.926300,341.715179 
	C268.921814,340.982361 265.550049,340.365295 261.358765,339.660278 
M407.377441,345.015930 
	C398.055756,336.469879 382.986633,338.430603 378.025482,348.835083 
	C374.462036,356.308289 376.745209,365.070007 383.435150,369.594971 
	C391.049805,374.745453 401.426544,373.450104 408.078400,366.292145 
	C406.018341,364.423615 403.960754,362.557312 401.962067,360.744446 
	C395.622986,364.701141 391.602386,364.954559 388.957764,361.403259 
	C386.385986,357.949829 386.421204,354.196228 389.017944,350.773621 
	C391.576691,347.401093 395.821594,347.683746 402.145142,351.537720 
	C403.981689,349.602203 405.885956,347.595337 407.377441,345.015930 
M91.900391,352.666962 
	C95.753250,347.104309 98.491081,346.840118 105.895790,351.488739 
	C107.907562,349.706390 109.975014,347.874695 112.038200,346.046753 
	C104.941116,338.091095 91.949699,337.575836 84.990608,344.594208 
	C78.604721,351.034454 78.929436,362.297058 85.673386,368.277954 
	C93.223183,374.973480 105.875626,373.984558 111.829048,366.039398 
	C109.778793,364.213318 107.719345,362.379028 105.639595,360.526672 
	C102.031982,363.650208 98.480629,365.430115 94.451797,362.702057 
	C91.144981,360.462891 90.607933,357.098083 91.900391,352.666962 
M355.400848,355.508789 
	C355.400848,360.941895 355.400848,366.374969 355.400848,371.741730 
	C359.340729,371.741730 362.599884,371.741730 366.214355,371.741730 
	C366.214355,364.028595 366.214355,356.594147 366.214355,348.959137 
	C369.445190,348.731171 372.326019,348.527863 375.200317,348.325043 
	C375.200317,345.431458 375.200317,343.000610 375.200317,340.526855 
	C365.368439,340.526855 355.832336,340.526855 346.366150,340.526855 
	C346.366150,343.339417 346.366150,345.767090 346.366150,348.438171 
	C349.393646,348.587280 352.151733,348.723145 355.401184,348.883209 
	C355.401184,350.933990 355.401184,352.724030 355.400848,355.508789 
M332.705780,370.882233 
	C336.071991,371.387634 339.438171,371.893066 342.791748,372.396576 
	C342.791748,361.085571 342.791748,350.733978 342.791748,340.410950 
	C339.283508,340.410950 336.189178,340.410950 332.647034,340.410950 
	C332.647034,350.415741 332.647034,360.193451 332.705780,370.882233 
M231.271240,374.355347 
	C235.337540,375.601776 238.983826,374.741760 239.835815,370.400635 
	C240.252304,368.278503 238.692291,364.324677 236.998169,363.597992 
	C234.885773,362.691833 230.707260,363.341339 229.224091,364.965668 
	C226.777176,367.645508 227.133636,371.411957 231.271240,374.355347 
M240.297913,342.874481 
	C239.395187,338.520477 236.219696,337.154541 232.547638,338.225403 
	C230.725494,338.756775 228.699219,341.117004 228.180069,343.033173 
	C227.251709,346.459808 228.970581,349.141998 232.744781,349.883972 
	C236.711655,350.663849 239.160522,348.600006 240.297913,342.874481 
M231.759583,271.416565 
	C236.059738,271.504883 240.367645,271.762268 244.654709,271.565460 
	C245.759506,271.514771 246.798782,270.036011 247.868149,269.213287 
	C246.860962,268.343872 245.898529,266.794952 244.838699,266.725159 
	C240.714691,266.453644 236.533447,266.376221 232.425430,266.769379 
	C229.585464,267.041168 228.635178,268.754486 231.759583,271.416565 
M229.472900,302.675385 
	C227.649292,302.682251 225.747726,302.373230 224.027206,302.797852 
	C222.695938,303.126373 221.591354,304.373352 220.386002,305.212067 
	C221.542191,306.135986 222.584183,307.579742 223.880753,307.864594 
	C225.937759,308.316467 228.218109,308.293884 230.306870,307.923920 
	C233.009048,307.445312 237.906113,310.002411 237.777573,305.130585 
	C237.669006,301.016144 232.982559,303.344391 229.472900,302.675385 
M235.843414,231.381317 
	C231.255966,231.137955 226.668640,230.763245 222.080978,230.759094 
	C221.133438,230.758240 220.184647,232.137070 219.236435,232.880005 
	C220.226700,233.755859 221.162170,235.300903 222.217056,235.387238 
	C226.000824,235.696976 229.851196,235.757645 233.616486,235.353928 
	C234.629944,235.245239 235.431259,233.158005 235.843414,231.381317 
M207.273621,235.561096 
	C208.425934,235.556549 209.701096,235.863953 210.700195,235.470444 
	C212.022873,234.949493 213.129578,233.880249 214.329117,233.046661 
	C213.114487,232.254059 211.954361,230.901550 210.674713,230.776978 
	C207.248688,230.443420 203.757233,230.454315 200.322510,230.722351 
	C199.178024,230.811661 198.126770,232.095551 197.032913,232.833359 
	C198.173264,233.730194 199.199173,235.102585 200.481110,235.411118 
	C202.350876,235.861145 204.404739,235.546356 207.273621,235.561096 
M199.679276,287.866180 
	C201.248230,289.320587 202.672760,290.998108 204.441895,292.143280 
	C205.455475,292.799377 207.028976,292.590515 208.350418,292.771027 
	C208.266846,291.480316 208.337143,290.152679 208.039993,288.913177 
	C207.871262,288.209320 207.100937,287.649658 206.485306,286.879669 
	C207.302002,285.848938 208.293686,285.060608 208.612885,284.058136 
	C208.904602,283.141937 208.769623,281.787201 208.244431,281.023193 
	C207.910721,280.537720 206.129257,280.348511 205.670975,280.766083 
	C203.454483,282.785614 201.466400,285.055786 199.679276,287.866180 
M246.871155,286.595642 
	C246.214706,285.673004 245.754944,284.405090 244.862503,283.896759 
	C242.744247,282.690186 240.420959,281.843628 238.180511,280.851593 
	C238.399628,283.000580 238.618744,285.149536 238.703033,285.976166 
	C238.411789,289.001801 238.233582,290.853180 238.055359,292.704529 
	C239.878265,292.104156 241.860931,291.773926 243.474579,290.819733 
	C244.815521,290.026733 245.722458,288.499878 246.871155,286.595642 
M219.153900,214.715607 
	C219.584991,212.865112 220.016068,211.014618 220.447159,209.164124 
	C218.650909,209.846924 216.793198,210.407349 215.084854,211.265167 
	C214.255386,211.681671 213.197159,212.616623 213.139359,213.384384 
	C213.033112,214.795410 213.113770,216.731567 213.973770,217.594193 
	C215.589645,219.215012 217.815521,220.227676 219.787750,221.493225 
	C220.267975,220.570694 221.261826,219.549469 221.107971,218.748795 
	C220.877563,217.549606 219.840805,216.505356 219.153900,214.715607 
M242.860901,208.760162 
	C238.460114,209.594971 238.431351,209.734406 241.545059,215.308075 
	C241.308777,215.701248 240.931305,216.088684 240.833191,216.537231 
	C240.521133,217.963715 240.313126,219.412964 240.064911,220.853409 
	C241.629028,220.529037 243.572937,220.683868 244.691559,219.797348 
	C249.542679,215.952850 249.342667,214.922241 242.860901,208.760162 
M227.347153,250.554260 
	C227.378662,252.209732 227.109787,253.950760 227.548355,255.490265 
	C227.836029,256.500031 229.028168,257.570374 230.050232,257.913422 
	C230.534256,258.075836 232.193756,256.639099 232.245026,255.856400 
	C232.460297,252.570389 232.379700,249.249329 232.129242,245.962296 
	C232.081589,245.337036 230.788803,244.380890 230.041946,244.353394 
	C229.281967,244.325424 228.075317,245.095245 227.799530,245.802460 
	C227.340271,246.980209 227.467712,248.386734 227.347153,250.554260 
M230.267593,283.347443 
	C229.391556,282.358643 228.515518,281.369812 227.639465,280.381012 
	C226.828323,281.452271 225.481018,282.448120 225.317535,283.610474 
	C224.976028,286.038757 225.073654,288.578552 225.384796,291.022400 
	C225.496475,291.899536 226.928360,293.395081 227.430481,293.272156 
	C228.472717,293.016907 229.920013,291.980713 230.085892,291.063873 
	C230.492294,288.817566 230.265808,286.456757 230.267593,283.347443 
M216.161865,288.240906 
	C216.989563,289.949463 217.817276,291.658020 218.645004,293.366577 
	C219.532516,291.707001 220.437927,290.056488 221.289017,288.378448 
	C221.422073,288.116089 221.371399,287.713562 221.298187,287.401031 
	C220.725998,284.958344 222.873001,280.630280 218.716080,280.633484 
	C214.560471,280.636688 216.705582,284.941101 216.161865,288.240906 
M233.971848,220.344025 
	C234.835693,217.419693 231.548004,210.480179 228.757019,210.110367 
	C227.818649,209.986053 226.634460,211.716782 225.562637,212.599655 
	C228.156586,215.300644 230.750534,218.001648 233.971848,220.344025 
M206.483582,257.960052 
	C208.876678,256.077637 210.285812,247.123672 208.185272,245.240921 
	C207.543411,244.665619 204.480804,245.565353 204.487183,245.669373 
	C204.735718,249.723526 205.211578,253.763748 206.483582,257.960052 
M231.219299,194.998840 
	C229.554443,195.007950 227.848190,194.798233 226.239197,195.102600 
	C225.155304,195.307632 224.208755,196.238739 223.200760,196.845016 
	C224.183563,197.737274 225.048920,199.151306 226.175491,199.404938 
	C228.077103,199.833038 230.192749,199.789566 232.124329,199.433762 
	C233.370987,199.204147 234.449860,198.063568 235.603928,197.331238 
	C234.430191,196.553894 233.256470,195.776535 231.219299,194.998840 
M202.473495,266.941010 
	C201.963470,268.308594 201.453445,269.676208 200.943436,271.043793 
	C203.827560,271.233063 206.715012,271.552521 209.592422,271.478943 
	C210.052994,271.467133 210.468613,269.696136 210.904999,268.738403 
	C208.845047,268.095795 206.792847,267.426208 204.719101,266.831696 
	C204.264771,266.701447 203.733734,266.838745 202.473495,266.941010 
M225.463974,270.401276 
	C224.468109,269.214600 223.543747,267.114319 222.461670,267.029602 
	C220.140747,266.848053 217.738419,267.706726 215.369415,268.139435 
	C216.007690,269.365173 216.565216,271.577911 217.298859,271.637939 
	C219.849731,271.846588 222.461685,271.308838 225.463974,270.401276 
M235.245148,252.970840 
	C236.397751,253.808853 237.550369,254.646851 238.702957,255.484863 
	C239.250275,253.694901 240.169693,251.913376 240.210526,250.111923 
	C240.236588,248.962845 239.090988,247.655106 238.163239,246.725296 
	C237.972229,246.533875 235.973312,247.495483 235.597656,248.296234 
	C235.072220,249.416290 235.288239,250.884201 235.245148,252.970840 
M219.742569,249.136017 
	C219.823380,250.611740 219.540146,252.257935 220.121384,253.499344 
	C220.470795,254.245590 222.167831,254.360855 223.259247,254.759689 
	C223.608826,252.763687 223.958405,250.767700 224.307983,248.771713 
	C222.865982,248.669098 221.423965,248.566498 219.742569,249.136017 
M197.314926,254.574524 
	C200.870483,256.055969 201.514252,253.665588 201.219086,251.182709 
	C201.050552,249.765137 199.607300,248.499100 198.737976,247.164841 
	C197.882858,248.681854 196.883820,250.141785 196.247467,251.745605 
	C196.011490,252.340363 196.626587,253.272781 197.314926,254.574524 
M241.826019,234.668289 
	C244.179352,236.101395 246.517792,236.529007 247.845581,233.569641 
	C248.093491,233.017075 246.554459,230.910507 245.601044,230.720490 
	C243.286911,230.259308 240.791397,230.455215 241.826019,234.668289 
M243.523590,199.611435 
	C245.034485,198.751480 246.545395,197.891525 248.056305,197.031601 
	C247.281631,196.354324 246.492828,195.096939 245.735123,195.115417 
	C243.921753,195.159592 242.123032,195.804214 240.318390,196.206451 
	C241.139801,197.327942 241.961212,198.449417 243.523590,199.611435 
z"/>
<path fill="#E7E8EA" opacity="1.000000" stroke="none" 
	d="
M329.362976,270.008820 
	C339.487915,274.827637 349.774200,277.349945 360.613647,276.037262 
	C363.089447,275.737427 365.301910,273.262878 367.635590,271.789246 
	C365.573059,269.965698 363.793976,267.225861 361.396729,266.484283 
	C352.996521,263.885834 344.254486,262.379883 335.881287,259.709503 
	C323.511383,255.764511 316.844055,246.756058 317.151031,235.014252 
	C317.452545,223.482697 322.984406,214.802628 333.363068,210.041718 
	C353.823486,200.656082 374.031036,203.479477 394.406097,212.080475 
	C391.185425,219.823441 388.212158,226.971634 385.294403,233.986389 
	C378.778381,232.089996 372.715637,229.752365 366.437073,228.688263 
	C361.814545,227.904831 356.847687,228.394516 352.164459,229.137527 
	C350.518280,229.398712 348.395935,231.967056 348.123230,233.733887 
	C347.937531,234.936920 350.348206,237.389114 352.011597,237.879456 
	C358.535400,239.802628 365.231873,241.134201 371.846344,242.758423 
	C374.586761,243.431351 377.356232,244.093491 379.984650,245.095810 
	C389.378784,248.678238 396.645325,254.413101 397.912842,265.135956 
	C399.257416,276.510712 395.295502,285.762756 385.643524,292.225067 
	C373.421021,300.408447 359.666443,300.899048 345.739319,299.482697 
	C335.325256,298.423645 325.053894,296.438721 315.759888,290.540375 
	C319.062073,283.087952 322.270111,275.848022 325.567047,268.407410 
	C326.931458,268.989716 327.978394,269.436523 329.362976,270.008820 
z"/>
<path fill="#E7E8EA" opacity="1.000000" stroke="none" 
	d="
M103.839951,284.153503 
	C90.767395,268.686646 88.358376,251.445129 95.597679,233.441498 
	C102.702225,215.772995 117.204247,206.902817 135.782089,204.901611 
	C153.710022,202.970398 169.905640,206.795944 182.407959,220.961639 
	C182.833832,221.444183 183.178665,221.998230 183.741913,222.764832 
	C177.376724,228.449554 171.054779,234.095627 164.750061,239.726334 
	C149.387161,227.700165 137.360550,226.399506 128.701355,235.756516 
	C120.940323,244.143036 121.021111,260.575043 128.863998,268.835022 
	C137.754517,278.198334 149.965683,276.828278 164.685501,264.649292 
	C170.946533,270.247589 177.240936,275.875732 183.493835,281.466766 
	C169.465195,303.503723 125.516167,307.751465 103.839951,284.153503 
z"/>
<path fill="#2169E6" opacity="1.000000" stroke="none" 
	d="
M282.000000,244.685852 
	C275.500214,244.692291 269.496460,244.585144 263.503540,244.792435 
	C262.143066,244.839493 260.820312,245.976807 259.480194,246.612305 
	C260.818207,247.278305 262.149506,248.507233 263.495239,248.523224 
	C276.993103,248.683578 290.495087,248.540695 303.991302,248.761963 
	C306.296783,248.799759 309.387268,249.503159 310.657410,251.076126 
	C312.046814,252.796829 312.882477,256.569977 311.896667,258.204529 
	C310.610199,260.337677 307.347656,262.376129 304.846802,262.488739 
	C294.368042,262.960419 283.856232,262.694824 273.356506,262.705139 
	C269.856659,262.708557 266.344269,262.565765 262.863953,262.833008 
	C261.683441,262.923706 260.583984,264.069794 259.447479,264.733582 
	C260.589325,265.418060 261.724091,266.683655 262.874084,266.697601 
	C275.205292,266.847321 287.540283,266.707672 299.870697,266.888672 
	C302.132050,266.921844 304.377563,268.037415 306.630371,268.653351 
	C305.790588,271.396973 305.736298,274.995331 303.914124,276.669952 
	C301.586945,278.808685 297.877258,280.325714 294.685364,280.478333 
	C284.374390,280.971313 274.026550,280.652313 263.695892,280.824829 
	C262.287994,280.848328 260.897034,281.887207 259.498230,282.455994 
	C260.941803,283.160767 262.373383,284.446259 263.830902,284.476349 
	C273.493530,284.675720 283.164062,284.736938 292.827087,284.565002 
	C297.242676,284.486450 297.949615,286.674438 297.177063,290.235474 
	C296.118500,295.114777 291.538208,298.535522 285.581696,298.649933 
	C278.250793,298.790710 270.913574,298.638031 263.585144,298.836395 
	C262.202057,298.873840 260.847351,299.960449 259.479553,300.562866 
	C260.790588,301.257965 262.071075,302.473938 263.418213,302.552917 
	C267.903259,302.815857 272.424561,302.490906 276.904297,302.796600 
	C278.171967,302.883087 279.345093,304.354980 280.561584,305.191467 
	C279.281006,306.131287 278.047424,307.794983 276.711456,307.881744 
	C271.732605,308.205078 266.717438,308.113525 261.721100,307.980713 
	C257.086578,307.857574 253.927322,304.720825 253.970795,300.595032 
	C254.015152,296.383759 256.978882,293.686676 261.979218,293.612549 
	C269.477631,293.501404 276.982605,293.685272 284.475586,293.449890 
	C286.687744,293.380432 288.868805,292.320129 291.064117,291.713898 
	C290.985382,291.171814 290.906677,290.629730 290.827942,290.087677 
	C289.303986,289.966553 287.780609,289.749268 286.256012,289.740356 
	C278.089844,289.692566 269.920868,289.813843 261.757935,289.640228 
	C256.676208,289.532196 253.862701,286.709503 254.006958,282.435730 
	C254.149643,278.208221 257.123535,275.576080 262.113007,275.545868 
	C272.445648,275.483246 282.780426,275.628998 293.110840,275.466339 
	C295.468201,275.429230 297.811310,274.488159 300.160980,273.963104 
	C300.081848,273.391357 300.002716,272.819580 299.923584,272.247833 
	C298.213715,272.151031 296.504059,271.974792 294.793945,271.970367 
	C284.127594,271.942902 273.460876,272.002167 262.794891,271.932953 
	C256.958771,271.895081 253.919525,269.311615 253.992889,264.727142 
	C254.066422,260.132233 257.138214,257.571167 262.845917,257.550873 
	C275.012085,257.507599 287.178589,257.540436 299.344940,257.541016 
	C300.678223,257.541107 302.084259,257.800262 303.325378,257.460327 
	C304.709686,257.081207 305.944122,256.154877 307.243805,255.466736 
	C306.021942,254.886169 304.849152,254.116806 303.563232,253.782745 
	C302.469269,253.498550 301.245026,253.712067 300.078400,253.711899 
	C288.578674,253.710373 277.078979,253.712738 265.579254,253.706604 
	C264.079712,253.705811 262.572723,253.750778 261.082031,253.623688 
	C256.840637,253.262100 254.255676,251.046692 254.029434,246.681107 
	C253.822784,242.693359 256.832214,239.662659 261.401611,239.598663 
	C272.565948,239.442291 283.733521,239.518143 294.899811,239.501495 
	C296.697571,239.498810 298.495331,239.501114 300.808105,239.501114 
	C299.396851,235.403656 296.454285,235.687073 293.803070,235.668930 
	C282.970642,235.594772 272.135895,235.707535 261.305603,235.531525 
	C256.596924,235.455017 253.759644,232.549896 254.040375,228.454666 
	C254.337234,224.124023 256.935944,221.916092 261.180145,221.588654 
	C262.339691,221.499191 263.512238,221.580597 264.678833,221.580170 
	C271.678619,221.577606 278.678467,221.587540 285.678162,221.560760 
	C287.305908,221.554535 288.933167,221.422211 290.560669,221.347916 
	C290.700623,220.831161 290.840576,220.314423 290.980530,219.797684 
	C288.938049,219.144470 286.911102,217.991547 284.850372,217.927628 
	C277.357605,217.695221 269.852997,217.881577 262.353912,217.803680 
	C256.891266,217.746964 254.039429,215.241501 253.999054,210.702316 
	C253.959518,206.256760 256.874969,203.734207 262.378601,203.609116 
	C266.165070,203.523041 269.955109,203.592606 273.743530,203.592606 
	C273.906891,202.998825 274.070221,202.405045 274.233582,201.811264 
	C272.518921,201.124588 270.844025,200.001694 269.081451,199.840988 
	C265.275818,199.493973 261.403870,199.850174 257.605103,199.464935 
	C256.379333,199.340622 255.297379,197.798019 254.149628,196.904266 
	C255.315598,196.272995 256.459198,195.151993 257.651459,195.097595 
	C262.141052,194.892715 266.708740,194.594208 271.121979,195.217270 
	C273.660461,195.575668 276.629944,197.109833 278.176636,199.079590 
	C279.734283,201.063339 279.770386,204.241821 280.473175,206.896820 
	C278.215912,207.487366 275.985352,208.407654 273.695312,208.592941 
	C270.051636,208.887772 266.361053,208.567261 262.706329,208.781036 
	C261.612030,208.845078 260.571167,209.822418 259.505859,210.381332 
	C260.556427,211.140915 261.588593,212.527802 262.660461,212.559219 
	C270.154572,212.778793 277.658112,212.646225 285.156250,212.769150 
	C291.456818,212.872437 295.684082,215.822433 297.041779,220.798080 
	C298.233582,225.165802 297.209320,226.608353 292.616119,226.647873 
	C283.783539,226.723877 274.950073,226.694305 266.116974,226.710663 
	C264.950378,226.712830 263.721039,226.500061 262.634583,226.799698 
	C261.512421,227.109177 260.529236,227.922470 259.485229,228.515350 
	C260.460999,229.185165 261.365173,230.240494 262.428680,230.438049 
	C264.202728,230.767639 266.078796,230.554703 267.911896,230.558990 
	C277.078247,230.580475 286.245605,230.523270 295.410583,230.645096 
	C301.080414,230.720444 304.919281,233.523605 306.454224,238.328995 
	C307.884613,242.806946 306.691101,244.599075 301.996735,244.661758 
	C295.498840,244.748520 288.998993,244.685196 282.000000,244.685852 
z"/>
<path fill="#E3E4E6" opacity="1.000000" stroke="none" 
	d="
M288.664490,347.252808 
	C289.699890,350.574097 290.588470,353.517120 291.477081,356.460144 
	C291.823181,356.476990 292.169281,356.493835 292.515411,356.510681 
	C293.705994,352.842560 295.192505,349.238983 296.009796,345.489502 
	C296.961548,341.123260 299.167816,339.278412 303.616272,340.131500 
	C304.732666,340.345581 305.924988,340.163544 307.550934,340.163544 
	C309.328186,345.786530 311.096375,351.380829 313.219177,358.097076 
	C315.464508,351.360321 317.318115,345.798981 319.158600,340.276886 
	C322.480469,340.276886 325.460754,340.276886 329.169312,340.276886 
	C325.796448,350.905121 322.520966,361.226410 319.183990,371.741516 
	C315.258514,371.741516 311.519531,371.741516 307.560333,371.741516 
	C305.983124,366.657898 304.419189,361.617126 302.515137,355.480072 
	C300.466522,361.587097 298.733765,366.752472 297.027924,371.837616 
	C293.096954,371.837616 289.463287,371.837616 285.525848,371.837616 
	C282.210815,361.403839 278.918762,351.042389 275.592712,340.573883 
	C286.289124,339.398926 286.289124,339.398926 288.664490,347.252808 
z"/>
<path fill="#2270FA" opacity="1.000000" stroke="none" 
	d="
M165.966736,372.008118 
	C162.016403,372.008118 158.550903,372.008118 154.830170,372.008118 
	C154.830170,361.349091 154.830170,351.097595 154.830170,339.780365 
	C162.293198,340.260986 169.600525,340.119415 176.666000,341.357758 
	C183.811966,342.610260 187.916992,348.639282 188.027557,355.805908 
	C188.143051,363.291412 184.143677,368.990448 176.805786,370.911499 
	C173.486206,371.780579 169.910873,371.672729 165.966736,372.008118 
M176.814468,353.151550 
	C174.320435,348.059174 170.092651,348.325897 165.436768,349.200470 
	C165.436768,354.065247 165.436768,358.614990 165.436768,363.109589 
	C173.915329,364.761780 177.331573,361.977112 176.814468,353.151550 
z"/>
<path fill="#E5E6E8" opacity="1.000000" stroke="none" 
	d="
M411.627808,348.161926 
	C411.627991,345.375427 411.627991,343.067047 411.627991,340.466370 
	C415.238098,340.466370 418.452728,340.466370 422.171356,340.466370 
	C422.171356,344.033600 422.171356,347.452545 422.171356,351.174896 
	C425.591034,351.174896 428.522186,351.174896 431.871582,351.174896 
	C431.871582,347.865356 431.871582,344.426910 431.871582,340.578003 
	C435.632324,340.578003 438.994965,340.578003 442.652954,340.578003 
	C442.652954,350.853851 442.652954,361.103394 442.652954,371.681946 
	C439.308899,371.681946 435.933014,371.681946 432.135101,371.681946 
	C432.135101,367.992554 432.135101,364.394928 432.135101,360.519287 
	C428.809875,360.519287 425.889526,360.519287 422.525208,360.519287 
	C422.525208,364.097412 422.525208,367.685913 422.525208,371.641876 
	C418.864136,371.641876 415.629608,371.641876 411.627625,371.641876 
	C411.627625,364.104980 411.627625,356.372498 411.627808,348.161926 
z"/>
<path fill="#2270F9" opacity="1.000000" stroke="none" 
	d="
M132.036774,339.650055 
	C145.922333,339.696259 152.626190,351.398895 149.174744,361.395477 
	C146.311218,369.689270 137.829193,374.049957 128.210983,372.214203 
	C119.611374,370.572876 113.843468,363.577545 114.344818,355.397308 
	C114.901588,346.312805 121.046265,340.722778 132.036774,339.650055 
M125.578178,353.333862 
	C124.393753,357.887665 125.382317,361.735352 129.971802,363.567322 
	C133.466003,364.962128 136.476807,363.578247 138.308685,360.214203 
	C140.369141,356.430328 139.089294,351.246460 135.698792,349.220001 
	C132.115494,347.078369 128.855972,348.203430 125.578178,353.333862 
z"/>
<path fill="#2270FA" opacity="1.000000" stroke="none" 
	d="
M192.031677,340.878540 
	C200.399170,340.500519 208.529175,340.500519 217.012817,340.500519 
	C217.012817,342.867981 217.012817,345.277832 217.012817,347.749542 
	C212.045517,348.206360 207.197083,348.630402 202.365280,349.196503 
	C202.212280,349.214447 202.230545,350.694244 202.127701,352.027588 
	C206.581924,352.027588 210.832138,352.027588 215.309036,352.027588 
	C215.309036,354.794312 215.309036,357.038940 215.309036,359.100861 
	C211.138641,361.649200 205.022919,357.103485 201.971405,362.054932 
	C202.107742,362.621918 202.244080,363.188873 202.380417,363.755859 
	C207.320312,363.755859 212.260193,363.755859 217.599182,363.755859 
	C217.599182,366.524658 217.599182,368.913971 217.599182,372.008545 
	C213.509125,372.008545 209.248093,372.008514 204.987061,372.008514 
	C200.687027,372.008514 196.386978,372.008545 191.794189,372.008545 
	C191.794189,361.490204 191.794189,351.373383 192.031677,340.878540 
z"/>
<path fill="#E3E4E5" opacity="1.000000" stroke="none" 
	d="
M261.768494,339.704254 
	C265.550049,340.365295 268.921814,340.982361 272.926300,341.715179 
	C271.705017,344.832550 270.775543,347.205078 269.968140,349.265991 
	C265.531525,348.780579 261.359833,348.324188 257.188141,347.867767 
	C257.014252,348.563416 256.840332,349.259064 256.666412,349.954742 
	C257.950684,350.592438 259.179565,351.409454 260.531738,351.827209 
	C262.743073,352.510376 265.090698,352.767273 267.279938,353.503876 
	C270.946716,354.737579 273.747375,356.874634 274.052704,361.176392 
	C274.375031,365.717224 272.312897,369.019867 268.346008,370.774139 
	C260.725861,374.143982 253.249451,373.055115 245.566147,369.475067 
	C246.795166,366.733765 247.853928,364.372253 248.986893,361.845184 
	C253.863770,363.407501 258.369019,365.788025 264.788757,362.819183 
	C261.961121,361.646179 260.465820,360.923126 258.902374,360.406189 
	C257.333282,359.887329 255.693130,359.586060 254.089645,359.168243 
	C249.486771,357.968872 246.129608,355.429565 246.146027,350.313171 
	C246.162506,345.177551 249.226868,342.004059 254.011337,340.675598 
	C256.372437,340.019958 258.904205,339.979248 261.768494,339.704254 
z"/>
<path fill="#E4E5E6" opacity="1.000000" stroke="none" 
	d="
M407.583832,345.302185 
	C405.885956,347.595337 403.981689,349.602203 402.145142,351.537720 
	C395.821594,347.683746 391.576691,347.401093 389.017944,350.773621 
	C386.421204,354.196228 386.385986,357.949829 388.957764,361.403259 
	C391.602386,364.954559 395.622986,364.701141 401.962067,360.744446 
	C403.960754,362.557312 406.018341,364.423615 408.078400,366.292145 
	C401.426544,373.450104 391.049805,374.745453 383.435150,369.594971 
	C376.745209,365.070007 374.462036,356.308289 378.025482,348.835083 
	C382.986633,338.430603 398.055756,336.469879 407.583832,345.302185 
z"/>
<path fill="#2270F9" opacity="1.000000" stroke="none" 
	d="
M91.773758,353.033234 
	C90.607933,357.098083 91.144981,360.462891 94.451797,362.702057 
	C98.480629,365.430115 102.031982,363.650208 105.639595,360.526672 
	C107.719345,362.379028 109.778793,364.213318 111.829048,366.039398 
	C105.875626,373.984558 93.223183,374.973480 85.673386,368.277954 
	C78.929436,362.297058 78.604721,351.034454 84.990608,344.594208 
	C91.949699,337.575836 104.941116,338.091095 112.038200,346.046753 
	C109.975014,347.874695 107.907562,349.706390 105.895790,351.488739 
	C98.491081,346.840118 95.753250,347.104309 91.773758,353.033234 
z"/>
<path fill="#DEDFE0" opacity="1.000000" stroke="none" 
	d="
M355.401001,355.011444 
	C355.401184,352.724030 355.401184,350.933990 355.401184,348.883209 
	C352.151733,348.723145 349.393646,348.587280 346.366150,348.438171 
	C346.366150,345.767090 346.366150,343.339417 346.366150,340.526855 
	C355.832336,340.526855 365.368439,340.526855 375.200317,340.526855 
	C375.200317,343.000610 375.200317,345.431458 375.200317,348.325043 
	C372.326019,348.527863 369.445190,348.731171 366.214355,348.959137 
	C366.214355,356.594147 366.214355,364.028595 366.214355,371.741730 
	C362.599884,371.741730 359.340729,371.741730 355.400848,371.741730 
	C355.400848,366.374969 355.400848,360.941895 355.401001,355.011444 
z"/>
<path fill="#E7E8EA" opacity="1.000000" stroke="none" 
	d="
M332.676392,370.426697 
	C332.647034,360.193451 332.647034,350.415741 332.647034,340.410950 
	C336.189178,340.410950 339.283508,340.410950 342.791748,340.410950 
	C342.791748,350.733978 342.791748,361.085571 342.791748,372.396576 
	C339.438171,371.893066 336.071991,371.387634 332.676392,370.426697 
z"/>
<path fill="#F0F0EF" opacity="1.000000" stroke="none" 
	d="
M230.926636,374.170898 
	C227.133636,371.411957 226.777176,367.645508 229.224091,364.965668 
	C230.707260,363.341339 234.885773,362.691833 236.998169,363.597992 
	C238.692291,364.324677 240.252304,368.278503 239.835815,370.400635 
	C238.983826,374.741760 235.337540,375.601776 230.926636,374.170898 
z"/>
<path fill="#F1F1F1" opacity="1.000000" stroke="none" 
	d="
M240.337616,343.234375 
	C239.160522,348.600006 236.711655,350.663849 232.744781,349.883972 
	C228.970581,349.141998 227.251709,346.459808 228.180069,343.033173 
	C228.699219,341.117004 230.725494,338.756775 232.547638,338.225403 
	C236.219696,337.154541 239.395187,338.520477 240.337616,343.234375 
z"/>
<path fill="#2167DF" opacity="1.000000" stroke="none" 
	d="
M231.411026,271.264221 
	C228.635178,268.754486 229.585464,267.041168 232.425430,266.769379 
	C236.533447,266.376221 240.714691,266.453644 244.838699,266.725159 
	C245.898529,266.794952 246.860962,268.343872 247.868149,269.213287 
	C246.798782,270.036011 245.759506,271.514771 244.654709,271.565460 
	C240.367645,271.762268 236.059738,271.504883 231.411026,271.264221 
z"/>
<path fill="#226BEC" opacity="1.000000" stroke="none" 
	d="
M229.920380,302.676392 
	C232.982559,303.344391 237.669006,301.016144 237.777573,305.130585 
	C237.906113,310.002411 233.009048,307.445312 230.306870,307.923920 
	C228.218109,308.293884 225.937759,308.316467 223.880753,307.864594 
	C222.584183,307.579742 221.542191,306.135986 220.385986,305.212067 
	C221.591354,304.373352 222.695938,303.126373 224.027206,302.797852 
	C225.747726,302.373230 227.649292,302.682251 229.920380,302.676392 
z"/>
<path fill="#226CEF" opacity="1.000000" stroke="none" 
	d="
M236.086700,231.680161 
	C235.431259,233.158005 234.629944,235.245239 233.616486,235.353928 
	C229.851196,235.757645 226.000824,235.696976 222.217056,235.387238 
	C221.162170,235.300903 220.226700,233.755859 219.236435,232.880005 
	C220.184647,232.137070 221.133438,230.758240 222.080978,230.759094 
	C226.668640,230.763245 231.255966,231.137955 236.086700,231.680161 
z"/>
<path fill="#226CED" opacity="1.000000" stroke="none" 
	d="
M206.826874,235.559357 
	C204.404739,235.546356 202.350876,235.861145 200.481110,235.411118 
	C199.199173,235.102585 198.173264,233.730194 197.032898,232.833344 
	C198.126770,232.095551 199.178024,230.811661 200.322510,230.722351 
	C203.757233,230.454315 207.248688,230.443420 210.674713,230.776978 
	C211.954361,230.901550 213.114487,232.254059 214.329102,233.046661 
	C213.129578,233.880249 212.022873,234.949493 210.700195,235.470444 
	C209.701096,235.863953 208.425934,235.556549 206.826874,235.559357 
z"/>
<path fill="#2268E3" opacity="1.000000" stroke="none" 
	d="
M199.538300,287.551636 
	C201.466400,285.055786 203.454483,282.785614 205.670975,280.766083 
	C206.129257,280.348511 207.910721,280.537720 208.244431,281.023193 
	C208.769623,281.787201 208.904602,283.141937 208.612885,284.058136 
	C208.293686,285.060608 207.302002,285.848938 206.485306,286.879669 
	C207.100937,287.649658 207.871262,288.209320 208.039993,288.913177 
	C208.337143,290.152679 208.266846,291.480316 208.350418,292.771057 
	C207.028976,292.590515 205.455475,292.799377 204.441895,292.143280 
	C202.672760,290.998108 201.248230,289.320587 199.538300,287.551636 
z"/>
<path fill="#2268E3" opacity="1.000000" stroke="none" 
	d="
M246.846405,286.946869 
	C245.722458,288.499878 244.815521,290.026733 243.474579,290.819733 
	C241.860931,291.773926 239.878265,292.104156 238.055359,292.704529 
	C238.233582,290.853180 238.411789,289.001801 238.703033,285.976166 
	C238.618744,285.149536 238.399628,283.000580 238.180511,280.851593 
	C240.420959,281.843628 242.744247,282.690186 244.862503,283.896759 
	C245.754944,284.405090 246.214706,285.673004 246.846405,286.946869 
z"/>
<path fill="#2268E3" opacity="1.000000" stroke="none" 
	d="
M219.150452,215.055405 
	C219.840805,216.505356 220.877563,217.549606 221.107971,218.748795 
	C221.261826,219.549469 220.267975,220.570694 219.787750,221.493225 
	C217.815521,220.227676 215.589645,219.215012 213.973770,217.594193 
	C213.113770,216.731567 213.033112,214.795410 213.139359,213.384384 
	C213.197159,212.616623 214.255386,211.681671 215.084854,211.265167 
	C216.793198,210.407349 218.650909,209.846924 220.447159,209.164124 
	C220.016068,211.014618 219.584991,212.865112 219.150452,215.055405 
z"/>
<path fill="#2167DF" opacity="1.000000" stroke="none" 
	d="
M243.151062,208.935974 
	C249.342667,214.922241 249.542679,215.952850 244.691559,219.797348 
	C243.572937,220.683868 241.629028,220.529037 240.064911,220.853409 
	C240.313126,219.412964 240.521133,217.963715 240.833191,216.537231 
	C240.931305,216.088684 241.308777,215.701248 241.545059,215.308075 
	C238.431351,209.734406 238.460114,209.594971 243.151062,208.935974 
z"/>
<path fill="#2166DD" opacity="1.000000" stroke="none" 
	d="
M227.347626,250.125580 
	C227.467712,248.386734 227.340271,246.980209 227.799530,245.802460 
	C228.075317,245.095245 229.281967,244.325424 230.041946,244.353394 
	C230.788803,244.380890 232.081589,245.337036 232.129242,245.962296 
	C232.379700,249.249329 232.460297,252.570389 232.245026,255.856400 
	C232.193756,256.639099 230.534256,258.075836 230.050232,257.913422 
	C229.028168,257.570374 227.836029,256.500031 227.548355,255.490265 
	C227.109787,253.950760 227.378662,252.209732 227.347626,250.125580 
z"/>
<path fill="#2167DF" opacity="1.000000" stroke="none" 
	d="
M230.280792,283.744751 
	C230.265808,286.456757 230.492294,288.817566 230.085892,291.063873 
	C229.920013,291.980713 228.472717,293.016907 227.430481,293.272156 
	C226.928360,293.395081 225.496475,291.899536 225.384796,291.022400 
	C225.073654,288.578552 224.976028,286.038757 225.317535,283.610474 
	C225.481018,282.448120 226.828323,281.452271 227.639465,280.381012 
	C228.515518,281.369812 229.391556,282.358643 230.280792,283.744751 
z"/>
<path fill="#2167DF" opacity="1.000000" stroke="none" 
	d="
M216.160217,287.813232 
	C216.705582,284.941101 214.560471,280.636688 218.716080,280.633484 
	C222.873001,280.630280 220.725998,284.958344 221.298187,287.401031 
	C221.371399,287.713562 221.422073,288.116089 221.289017,288.378448 
	C220.437927,290.056488 219.532516,291.707001 218.644989,293.366577 
	C217.817276,291.658020 216.989563,289.949463 216.160217,287.813232 
z"/>
<path fill="#2165DA" opacity="1.000000" stroke="none" 
	d="
M233.658173,220.523331 
	C230.750534,218.001648 228.156586,215.300644 225.562622,212.599640 
	C226.634460,211.716782 227.818649,209.986053 228.757019,210.110367 
	C231.548004,210.480179 234.835693,217.419693 233.658173,220.523331 
z"/>
<path fill="#2165DB" opacity="1.000000" stroke="none" 
	d="
M206.070618,257.882935 
	C205.211578,253.763748 204.735718,249.723526 204.487183,245.669373 
	C204.480804,245.565353 207.543411,244.665619 208.185272,245.240921 
	C210.285812,247.123672 208.876678,256.077637 206.070618,257.882935 
z"/>
<path fill="#226BEC" opacity="1.000000" stroke="none" 
	d="
M231.651016,194.999023 
	C233.256470,195.776535 234.430191,196.553894 235.603928,197.331238 
	C234.449860,198.063568 233.370987,199.204147 232.124329,199.433762 
	C230.192749,199.789566 228.077103,199.833038 226.175491,199.404938 
	C225.048920,199.151306 224.183563,197.737274 223.200760,196.845032 
	C224.208755,196.238739 225.155304,195.307632 226.239197,195.102600 
	C227.848190,194.798233 229.554443,195.007950 231.651016,194.999023 
z"/>
<path fill="#2163D5" opacity="1.000000" stroke="none" 
	d="
M202.855759,266.896912 
	C203.733734,266.838745 204.264771,266.701447 204.719101,266.831696 
	C206.792847,267.426208 208.845047,268.095795 210.904999,268.738403 
	C210.468613,269.696136 210.052994,271.467133 209.592422,271.478943 
	C206.715012,271.552521 203.827560,271.233063 200.943420,271.043793 
	C201.453445,269.676208 201.963470,268.308594 202.855759,266.896912 
z"/>
<path fill="#2164D7" opacity="1.000000" stroke="none" 
	d="
M225.257187,270.728088 
	C222.461685,271.308838 219.849731,271.846588 217.298859,271.637939 
	C216.565216,271.577911 216.007690,269.365173 215.369415,268.139465 
	C217.738419,267.706726 220.140747,266.848053 222.461670,267.029602 
	C223.543747,267.114319 224.468109,269.214600 225.257187,270.728088 
z"/>
<path fill="#2167DF" opacity="1.000000" stroke="none" 
	d="
M235.216095,252.587067 
	C235.288239,250.884201 235.072220,249.416290 235.597656,248.296234 
	C235.973312,247.495483 237.972229,246.533875 238.163239,246.725296 
	C239.090988,247.655106 240.236588,248.962845 240.210526,250.111923 
	C240.169693,251.913376 239.250275,253.694901 238.702972,255.484863 
	C237.550369,254.646851 236.397751,253.808853 235.216095,252.587067 
z"/>
<path fill="#2165DB" opacity="1.000000" stroke="none" 
	d="
M219.862274,248.799957 
	C221.423965,248.566498 222.865982,248.669098 224.307983,248.771698 
	C223.958405,250.767700 223.608826,252.763687 223.259247,254.759689 
	C222.167831,254.360855 220.470795,254.245590 220.121384,253.499344 
	C219.540146,252.257935 219.823380,250.611740 219.862274,248.799957 
z"/>
<path fill="#2163D5" opacity="1.000000" stroke="none" 
	d="
M197.084229,254.312866 
	C196.626587,253.272781 196.011490,252.340363 196.247467,251.745605 
	C196.883820,250.141785 197.882858,248.681854 198.737976,247.164841 
	C199.607300,248.499100 201.050552,249.765137 201.219086,251.182709 
	C201.514252,253.665588 200.870483,256.055969 197.084229,254.312866 
z"/>
<path fill="#2163D5" opacity="1.000000" stroke="none" 
	d="
M241.629211,234.369904 
	C240.791397,230.455215 243.286911,230.259308 245.601044,230.720490 
	C246.554459,230.910507 248.093491,233.017075 247.845581,233.569641 
	C246.517792,236.529007 244.179352,236.101395 241.629211,234.369904 
z"/>
<path fill="#2165DB" opacity="1.000000" stroke="none" 
	d="
M243.153107,199.591171 
	C241.961212,198.449417 241.139801,197.327942 240.318390,196.206451 
	C242.123032,195.804214 243.921753,195.159592 245.735123,195.115417 
	C246.492828,195.096939 247.281631,196.354324 248.056305,197.031586 
	C246.545395,197.891525 245.034485,198.751480 243.153107,199.591171 
z"/>
<path fill="#1D211C" opacity="1.000000" stroke="none" 
	d="
M176.901093,353.557892 
	C177.331573,361.977112 173.915329,364.761780 165.436768,363.109589 
	C165.436768,358.614990 165.436768,354.065247 165.436768,349.200470 
	C170.092651,348.325897 174.320435,348.059174 176.901093,353.557892 
z"/>
<path fill="#1D2019" opacity="1.000000" stroke="none" 
	d="
M125.722496,352.973755 
	C128.855972,348.203430 132.115494,347.078369 135.698792,349.220001 
	C139.089294,351.246460 140.369141,356.430328 138.308685,360.214203 
	C136.476807,363.578247 133.466003,364.962128 129.971802,363.567322 
	C125.382317,361.735352 124.393753,357.887665 125.722496,352.973755 
z"/>
</svg>